<?xml version="1.0" standalone="no"?>
<!DOCTYPE svg PUBLIC "-//W3C//DTD SVG 20010904//EN"
 "http://www.w3.org/TR/2001/REC-SVG-20010904/DTD/svg10.dtd">
<svg version="1.0" xmlns="http://www.w3.org/2000/svg"
 width="700.000000pt" height="700.000000pt" viewBox="0 0 700.000000 700.000000"
 preserveAspectRatio="xMidYMid meet">
<metadata>
Created by potrace 1.14, written by Peter Selinger 2001-2017
</metadata>
<g transform="translate(0.000000,700.000000) scale(0.100000,-0.100000)"
fill="#000000" stroke="none">
<path d="M3245 6985 c-441 -44 -877 -212 -1219 -469 -103 -77 -280 -248 -359
-346 -357 -443 -490 -986 -371 -1519 195 -874 1047 -1528 2057 -1580 733 -38
1411 216 1872 701 l96 101 -28 18 c-15 10 -151 96 -302 192 l-274 175 -91 -92
c-208 -206 -480 -349 -796 -417 -92 -20 -134 -23 -330 -23 -195 0 -239 3 -327
22 -479 104 -856 376 -1047 757 -157 315 -168 670 -28 992 83 193 255 405 432
535 283 207 605 310 970 310 445 0 839 -158 1130 -451 l85 -86 298 188 c163
104 297 194 297 199 0 6 -39 51 -87 101 -498 512 -1227 767 -1978 692z"/>
<path d="M2455 5756 c-42 -19 -90 -73 -117 -131 -18 -40 -23 -67 -23 -140 0
-102 22 -165 78 -223 44 -46 78 -62 133 -62 189 0 283 291 156 482 -50 76
-149 109 -227 74z"/>
<path d="M3095 5751 c-140 -87 -177 -312 -78 -463 77 -116 239 -116 314 -1 45
68 54 103 54 203 -1 128 -33 195 -120 254 -47 32 -125 36 -170 7z"/>
<path d="M1895 2834 c-16 -2 -82 -11 -145 -20 -369 -50 -739 -205 -1040 -432
-97 -74 -280 -257 -352 -352 -173 -229 -283 -477 -334 -755 -16 -83 -19 -152
-19 -415 0 -305 1 -317 23 -380 81 -223 262 -383 514 -452 l83 -23 2865 0
c2349 0 2877 2 2930 13 259 53 470 231 551 462 21 59 23 87 27 314 4 264 -6
409 -38 558 -146 669 -717 1222 -1462 1412 -187 48 -317 66 -518 73 -216 6
-306 -6 -590 -82 -395 -105 -551 -128 -890 -128 -335 0 -501 24 -871 123 -277
75 -313 81 -519 85 -102 2 -198 1 -215 -1z m555 -717 c393 -102 590 -132 940
-143 413 -14 735 27 1205 154 208 57 211 57 345 56 572 -4 1087 -351 1257
-849 42 -123 53 -220 53 -461 l0 -224 -2750 0 -2750 0 0 224 c0 241 11 338 53
461 153 449 590 779 1118 844 160 20 252 9 529 -62z"/>
</g>
</svg>
